<svg width="250" height="250" viewBox="0 0 250 250" fill="none" xmlns="http://www.w3.org/2000/svg">
<path d="M127 226.333C178.776 226.333 220.75 184.359 220.75 132.583C220.75 80.8073 178.776 38.8333 127 38.8333C75.224 38.8333 33.25 80.8073 33.25 132.583C33.25 184.359 75.224 226.333 127 226.333Z" stroke="#F57526" stroke-width="18" stroke-linejoin="round"/>
<path d="M95.75 18C116.583 18 125.698 33.625 127 38.8333C127.432 33.625 130.125 22.1667 137.417 18M163.458 169.042C163.458 169.042 153.042 189.875 127 189.875C100.958 189.875 90.5416 169.042 90.5416 169.042" stroke="#F57526" stroke-width="18" stroke-linecap="round" stroke-linejoin="round"/>
<path d="M165.85 168.412C165.85 168.412 174.175 146.294 160.3 146.294C146.425 146.294 143.65 185 143.65 185M176.95 102.059H154.75M88.15 91V113.118M16 118.647V140.765M238 118.647V140.765" stroke="#F57526" stroke-width="18" stroke-linecap="round" stroke-linejoin="round"/>
</svg>
